<?xml version="1.0" encoding="utf-8" ?><svg xmlns="http://www.w3.org/2000/svg" xmlns:xlink="http://www.w3.org/1999/xlink" width="64" height="64"><path fill="#DB9C14" d="M0 32C0 10.6667 10.6667 0 32 0C53.3333 0 64 10.6667 64 32C64 53.3333 53.3333 64 32 64C10.6667 64 0 53.3333 0 32Z"/><path fill="#FFF" fill-opacity="0.8" transform="matrix(1 0 0 1 22.09 20.98)" d="M4.45 22.04L0 22.04L0 0L9.37 0C11.7233 0 13.4367 0.1967 14.51 0.59C15.5767 0.9833 16.43 1.6867 17.07 2.7C17.71 3.7133 18.03 4.8733 18.03 6.18C18.03 7.8333 17.5433 9.2 16.57 10.28C15.5967 11.3533 14.1433 12.03 12.21 12.31C13.1767 12.8767 13.9733 13.4933 14.6 14.16C15.2267 14.8333 16.07 16.0267 17.13 17.74L19.82 22.04L14.5 22.04L11.28 17.25C10.1333 15.53 9.35 14.45 8.93 14.01C8.51 13.5633 8.0633 13.2567 7.59 13.09C7.1233 12.9233 6.3767 12.84 5.35 12.84L4.45 12.84L4.45 22.04ZM4.45 3.73L4.45 9.32L7.74 9.32C9.88 9.32 11.2133 9.23 11.74 9.05C12.2733 8.87 12.69 8.56 12.99 8.12C13.29 7.68 13.44 7.1267 13.44 6.46C13.44 5.72 13.2433 5.1233 12.85 4.67C12.4567 4.21 11.8967 3.92 11.17 3.8C10.81 3.7533 9.7267 3.73 7.92 3.73L4.45 3.73Z"/></svg>